<?xml version="1.0" encoding="utf-8"?>
<!-- Generator: Adobe Illustrator 19.1.1, SVG Export Plug-In . SVG Version: 6.00 Build 0)  -->
<svg version="1.1" id="Layer_1" xmlns="http://www.w3.org/2000/svg" xmlns:xlink="http://www.w3.org/1999/xlink" x="0px" y="0px"
	 viewBox="0 0 158.2 186.9" style="enable-background:new 0 0 158.2 186.9;" xml:space="preserve">
<g>
	<path d="M23,71.9v48.3c0,6.4-5.1,11.6-11.5,11.6S0,126.7,0,120.3V71.9c0-6.3,5.2-11.5,11.6-11.5C17.9,60.5,23,65.7,23,71.9z
		 M131,58.6H27.1c0-17.9,10.7-33.4,26.5-41.5l-8-14.7c-0.4-0.8-0.2-1.8,0.6-2.2C47-0.2,48,0,48.4,0.8l8.1,14.8
		c6.9-3,14.5-4.7,22.6-4.7c8.1,0,15.7,1.7,22.6,4.7l8.1-14.8c0.4-0.8,1.5-1,2.2-0.7c0.8,0.5,1,1.5,0.6,2.2l-8,14.7
		C120.3,25.2,131,40.7,131,58.6z M130.7,137.5c0,6.9-5.5,12.4-12.2,12.4H110v25.5c0,6.4-5.2,11.6-11.6,11.6
		c-6.4,0-11.6-5.2-11.6-11.6v-25.5H71.3v25.5c0,6.4-5.2,11.6-11.6,11.6c-6.3,0-11.5-5.2-11.5-11.6l-0.1-25.5h-8.3
		c-6.9,0-12.4-5.5-12.4-12.4V62.6h103.1V137.5z M59.8,35.4c0-2.4-1.9-4.4-4.4-4.4c-2.4,0-4.3,2-4.3,4.4c0,2.4,1.9,4.4,4.3,4.4
		C57.9,39.8,59.8,37.8,59.8,35.4z M107.1,35.4c0-2.4-1.9-4.4-4.3-4.4c-2.5,0-4.4,2-4.4,4.4c0,2.4,1.9,4.4,4.4,4.4
		C105.2,39.8,107.1,37.8,107.1,35.4z M158.2,120.3c0,6.4-5.2,11.6-11.6,11.6c-6.3,0-11.5-5.2-11.5-11.6V71.9
		c0-6.4,5.2-11.5,11.5-11.5c6.4,0,11.6,5.1,11.6,11.5V120.3z"/>
</g>
</svg>
